<svg width="32" height="32" viewBox="0 0 32 32" fill="none" xmlns="http://www.w3.org/2000/svg">
<path d="M6.15385 0H1.23077C0.492308 0 0 0.492308 0 1.23077V6.15385C0 6.89231 0.492308 7.38462 1.23077 7.38462H6.15385C6.89231 7.38462 7.38462 6.89231 7.38462 6.15385V1.23077C7.38462 0.492308 6.89231 0 6.15385 0ZM4.92308 4.92308H2.46154V2.46154H4.92308V4.92308Z" fill="white"/>
<path d="M18.4615 0H13.5384C12.7999 0 12.3076 0.492308 12.3076 1.23077V6.15385C12.3076 6.89231 12.7999 7.38462 13.5384 7.38462H18.4615C19.1999 7.38462 19.6922 6.89231 19.6922 6.15385V1.23077C19.6922 0.492308 19.1999 0 18.4615 0ZM17.2307 4.92308H14.7692V2.46154H17.2307V4.92308Z" fill="white"/>
<path d="M25.8462 7.38462H30.7693C31.5078 7.38462 32.0001 6.89231 32.0001 6.15385V1.23077C32.0001 0.492308 31.5078 0 30.7693 0H25.8462C25.1078 0 24.6155 0.492308 24.6155 1.23077V6.15385C24.6155 6.89231 25.1078 7.38462 25.8462 7.38462ZM27.077 2.46154H29.5386V4.92308H27.077V2.46154Z" fill="white"/>
<path d="M6.15385 12.3076H1.23077C0.492308 12.3076 0 12.7999 0 13.5384V18.4615C0 19.1999 0.492308 19.6922 1.23077 19.6922H6.15385C6.89231 19.6922 7.38462 19.1999 7.38462 18.4615V13.5384C7.38462 12.7999 6.89231 12.3076 6.15385 12.3076ZM4.92308 17.2307H2.46154V14.7692H4.92308V17.2307Z" fill="white"/>
<path d="M18.4615 12.3076H13.5384C12.7999 12.3076 12.3076 12.7999 12.3076 13.5384V18.4615C12.3076 19.1999 12.7999 19.6922 13.5384 19.6922H18.4615C19.1999 19.6922 19.6922 19.1999 19.6922 18.4615V13.5384C19.6922 12.7999 19.1999 12.3076 18.4615 12.3076ZM17.2307 17.2307H14.7692V14.7692H17.2307V17.2307Z" fill="white"/>
<path d="M25.8462 19.6922H30.7693C31.5078 19.6922 32.0001 19.1999 32.0001 18.4615V13.5384C32.0001 12.7999 31.5078 12.3076 30.7693 12.3076H25.8462C25.1078 12.3076 24.6155 12.7999 24.6155 13.5384V18.4615C24.6155 19.1999 25.1078 19.6922 25.8462 19.6922ZM27.077 14.7692H29.5386V17.2307H27.077V14.7692Z" fill="white"/>
<path d="M6.15385 24.6152H1.23077C0.492308 24.6152 0 25.1075 0 25.846V30.7691C0 31.5075 0.492308 31.9998 1.23077 31.9998H6.15385C6.89231 31.9998 7.38462 31.5075 7.38462 30.7691V25.846C7.38462 25.1075 6.89231 24.6152 6.15385 24.6152ZM4.92308 29.5383H2.46154V27.0768H4.92308V29.5383Z" fill="white"/>
<path d="M18.4615 24.6152H13.5384C12.7999 24.6152 12.3076 25.1075 12.3076 25.846V30.7691C12.3076 31.5075 12.7999 31.9998 13.5384 31.9998H18.4615C19.1999 31.9998 19.6922 31.5075 19.6922 30.7691V25.846C19.6922 25.1075 19.1999 24.6152 18.4615 24.6152ZM17.2307 29.5383H14.7692V27.0768H17.2307V29.5383Z" fill="white"/>
<path d="M31.8818 30.6412V25.7673C31.8818 25.0682 31.3599 24.5464 30.6608 24.5464H25.7968C25.0978 24.5464 24.5759 25.0682 24.5759 25.7673C24.5365 26.9095 24.3987 28.0221 24.3298 29.1544C24.2904 29.7747 24.2313 30.4344 24.4479 31.035C24.7728 31.9507 25.3144 31.8818 26.1808 31.8621C26.555 31.8522 26.939 31.8522 27.323 31.8522C28.2288 31.8522 29.1248 31.8522 30.0307 31.8522C30.2473 31.8522 30.4639 31.8522 30.6805 31.8522C31.3599 31.8621 31.8818 31.3304 31.8818 30.6412ZM27.0079 29.5975V27.1655H29.4399V29.5975H27.0079Z" fill="white"/>
</svg>
