<svg xmlns="http://www.w3.org/2000/svg" viewBox="0 0 151.2 148.96"><defs><style>.cls-1{fill:#29314f} @media (prefers-color-scheme: dark) {
      .cls-1 { fill: #ffffff }}</style></defs><g id="Layer_2" data-name="Layer 2"><g id="Layer_1-2" data-name="Layer 1"><path class="cls-1" d="M89,149a5.2,5.2,0,0,1-5.15-5.25V19.91a5.16,5.16,0,1,1,10.31,0v123.8A5.21,5.21,0,0,1,89,149ZM5.3,102.82A5.15,5.15,0,0,1,.14,97.67V73a5.16,5.16,0,0,1,10.32,0V97.67A5.15,5.15,0,0,1,5.3,102.82Zm140.45-.07a5.14,5.14,0,0,1-5.15-5.13V73.05a5.16,5.16,0,0,1,10.31,0V97.62A5.15,5.15,0,0,1,145.75,102.75ZM32.18,135.69c-2.84,0-5.15-2.79-5.15-6.24V34.05c0-3.44,2.31-6.23,5.15-6.23s5.16,2.79,5.16,6.23v95.41C37.34,132.9,35,135.69,32.18,135.69Zm85.18,0c-2.84,0-5.15-2.79-5.15-6.24V34.05c0-3.44,2.31-6.23,5.15-6.23s5.16,2.79,5.16,6.23v95.41C122.52,132.9,120.21,135.69,117.36,135.69ZM5.45,52.6A5.45,5.45,0,1,1,0,58.05,5.45,5.45,0,0,1,5.45,52.6ZM32.18,13.16a5.45,5.45,0,1,1-5.44,5.44A5.45,5.45,0,0,1,32.18,13.16ZM60.58,149c-2.85,0-5.16-2.61-5.16-5.82V20.81c0-3.21,2.31-5.82,5.16-5.82s5.15,2.61,5.15,5.82V143.14C65.73,146.35,63.43,149,60.58,149ZM60.58.34a5.45,5.45,0,1,1-5.45,5.45A5.44,5.44,0,0,1,60.58.34ZM89,0a5.45,5.45,0,1,1-5.45,5.45A5.45,5.45,0,0,1,89,0Zm28.39,11.5A5.45,5.45,0,1,1,111.92,17,5.45,5.45,0,0,1,117.36,11.5Zm28.39,41.29a5.45,5.45,0,1,1-5.44,5.45A5.45,5.45,0,0,1,145.75,52.79Z"/></g></g></svg>